<?xml version="1.0" encoding="UTF-8" standalone="no"?>
<!-- Created with Inkscape (http://www.inkscape.org/) -->

<svg
   width="64"
   height="64"
   viewBox="0 0 16.933333 16.933333"
   version="1.1"
   id="svg1"
   inkscape:version="1.3.2 (091e20e, 2023-11-25, custom)"
   sodipodi:docname="icon_sort.svg"
   xmlns:inkscape="http://www.inkscape.org/namespaces/inkscape"
   xmlns:sodipodi="http://sodipodi.sourceforge.net/DTD/sodipodi-0.dtd"
   xmlns="http://www.w3.org/2000/svg"
   xmlns:svg="http://www.w3.org/2000/svg">
  <sodipodi:namedview
     id="namedview1"
     pagecolor="#505050"
     bordercolor="#ffffff"
     borderopacity="1"
     inkscape:showpageshadow="0"
     inkscape:pageopacity="0"
     inkscape:pagecheckerboard="1"
     inkscape:deskcolor="#d1d1d1"
     inkscape:document-units="px"
     inkscape:zoom="5.6568542"
     inkscape:cx="45.696776"
     inkscape:cy="22.185475"
     inkscape:window-width="1600"
     inkscape:window-height="837"
     inkscape:window-x="-8"
     inkscape:window-y="-8"
     inkscape:window-maximized="1"
     inkscape:current-layer="layer1" />
  <defs
     id="defs1" />
  <g
     inkscape:label="Layer 1"
     inkscape:groupmode="layer"
     id="layer1">
    <rect
       style="fill:#f9f9f9;stroke-width:1.17607"
       id="rect15"
       width="1.5875"
       height="13.229166"
       x="2.9104166"
       y="1.3229166"
       rx="0.26458332"
       ry="0.26458332" />
    <path
       id="rect16"
       style="fill:#f9f9f9;stroke-width:1.17607"
       d="m 1.6461907,13.604317 c -0.103647,0.103647 -0.1036472,0.27053 -2e-7,0.374177 l 1.4967094,1.49671 0.374178,0.374178 c 0.103647,0.103647 0.2705297,0.103646 0.3741767,-1e-6 l 0.3741767,-0.374177 1.4967094,-1.496709 c 0.1036467,-0.103648 0.1036467,-0.27053 0,-0.374177 L 5.3879627,13.23014 c -0.103647,-0.103647 -0.2705297,-0.103647 -0.3741767,0 L 3.7041656,14.539761 2.3945448,13.23014 c -0.103647,-0.103647 -0.2705297,-0.103647 -0.3741768,0 z" />
    <rect
       style="fill:#f9f9f9;stroke-width:1.17607"
       id="rect17"
       width="10.054167"
       height="1.5875"
       x="5.5562501"
       y="3.0427084"
       rx="0.26458332"
       ry="0.26458332" />
    <rect
       style="fill:#f9f9f9;stroke-width:1.17607"
       id="rect20"
       width="9.260416"
       height="1.5875"
       x="5.5562501"
       y="6.2177086"
       rx="0.26458332"
       ry="0.26458332" />
    <rect
       style="fill:#f9f9f9;stroke-width:1.17607"
       id="rect21"
       width="8.4666662"
       height="1.5875"
       x="5.5562501"
       y="9.3927078"
       rx="0.26458332"
       ry="0.26458332" />
    <path
       id="rect22"
       style="fill:#f9f9f9;stroke-width:1.17607"
       d="M 5.8208332 12.567708 C 5.6742544 12.567708 5.5562499 12.685713 5.5562499 12.832291 L 5.5562499 12.869498 L 5.8942138 13.207462 C 5.8996569 13.212905 5.9048453 13.218742 5.9097167 13.224516 C 5.9119954 13.226642 5.9147292 13.227978 5.9169514 13.2302 L 6.2910887 13.604337 C 6.3947352 13.707984 6.3947352 13.874827 6.2910887 13.978475 L 6.1143553 14.155208 L 13.49375 14.155208 C 13.640329 14.155208 13.758333 14.037204 13.758333 13.890625 L 13.758333 12.832291 C 13.758333 12.685713 13.640329 12.567708 13.49375 12.567708 L 5.8208332 12.567708 z " />
  </g>
</svg>
