<?xml version="1.0" encoding="UTF-8" standalone="no"?>
<!-- Created with Inkscape (http://www.inkscape.org/) -->

<svg
   width="64"
   height="64"
   viewBox="0 0 16.933333 16.933333"
   version="1.1"
   id="svg1"
   inkscape:version="1.3.2 (091e20e, 2023-11-25, custom)"
   sodipodi:docname="icon_properties.svg"
   xmlns:inkscape="http://www.inkscape.org/namespaces/inkscape"
   xmlns:sodipodi="http://sodipodi.sourceforge.net/DTD/sodipodi-0.dtd"
   xmlns="http://www.w3.org/2000/svg"
   xmlns:svg="http://www.w3.org/2000/svg">
  <sodipodi:namedview
     id="namedview1"
     pagecolor="#505050"
     bordercolor="#ffffff"
     borderopacity="1"
     inkscape:showpageshadow="0"
     inkscape:pageopacity="0"
     inkscape:pagecheckerboard="1"
     inkscape:deskcolor="#d1d1d1"
     inkscape:document-units="px"
     inkscape:zoom="5.6568542"
     inkscape:cx="32.792077"
     inkscape:cy="21.124815"
     inkscape:window-width="1600"
     inkscape:window-height="837"
     inkscape:window-x="-8"
     inkscape:window-y="-8"
     inkscape:window-maximized="1"
     inkscape:current-layer="layer1" />
  <defs
     id="defs1" />
  <g
     inkscape:label="Layer 1"
     inkscape:groupmode="layer"
     id="layer1">
    <path
       id="path13"
       style="fill:#f9f9f9;stroke-width:1.17607"
       d="M 7.4083332 1.0583333 C 6.9685969 1.0583333 6.6145832 1.412347 6.6145832 1.8520833 L 6.6145832 3.5160644 A 5.2916665 5.2916665 0 0 0 5.82135 3.8824503 A 5.2916665 5.2916665 0 0 0 5.1066649 4.3868123 L 3.6648925 3.5537882 C 3.2840693 3.3339201 2.8000728 3.4633868 2.5802042 3.8442097 L 1.5218709 5.6776895 C 1.3020021 6.0585122 1.4319873 6.5419935 1.8128092 6.761861 L 3.2550984 7.5943683 A 5.2916665 5.2916665 0 0 0 3.1749999 8.4666665 A 5.2916665 5.2916665 0 0 0 3.2545816 9.3363808 L 1.8128092 10.168371 C 1.4319863 10.38824 1.3020028 10.871719 1.5218709 11.252543 L 2.5802042 13.086023 C 2.8000721 13.466845 3.2840706 13.596312 3.6648925 13.376444 L 5.1071817 12.54342 A 5.2916665 5.2916665 0 0 0 5.82135 13.047782 A 5.2916665 5.2916665 0 0 0 6.6145832 13.416235 L 6.6145832 15.08125 C 6.6145832 15.520985 6.9685969 15.875 7.4083332 15.875 L 9.5249998 15.875 C 9.9647361 15.875 10.31875 15.520985 10.31875 15.08125 L 10.31875 13.414168 A 5.2916665 5.2916665 0 0 0 10.417452 13.380062 A 5.2916665 5.2916665 0 0 0 10.778153 13.207462 A 5.2916665 5.2916665 0 0 0 11.113017 13.047782 A 5.2916665 5.2916665 0 0 0 11.177612 13.008508 A 5.2916665 5.2916665 0 0 0 11.832352 12.547554 A 5.2916665 5.2916665 0 0 0 11.832869 12.547038 L 13.269474 13.376444 C 13.650298 13.596311 14.133777 13.466845 14.353646 13.086023 L 15.411979 11.252543 C 15.631848 10.87172 15.502379 10.388239 15.121557 10.168371 L 13.683919 9.3389647 A 5.2916665 5.2916665 0 0 0 13.756783 8.4894041 A 5.2916665 5.2916665 0 0 0 13.758333 8.4666665 A 5.2916665 5.2916665 0 0 0 13.756783 8.4490965 A 5.2916665 5.2916665 0 0 0 13.698905 7.6848021 A 5.2916665 5.2916665 0 0 0 13.693738 7.6517292 A 5.2916665 5.2916665 0 0 0 13.684953 7.5912678 L 15.121557 6.761861 C 15.50238 6.5419928 15.631847 6.058512 15.411979 5.6776895 L 14.353646 3.8442097 C 14.133777 3.4633868 13.650298 3.3339203 13.269474 3.5537882 L 11.831319 4.3842284 A 5.2916665 5.2916665 0 0 0 11.719181 4.2943114 A 5.2916665 5.2916665 0 0 0 11.709879 4.2870767 A 5.2916665 5.2916665 0 0 0 11.113017 3.8824503 A 5.2916665 5.2916665 0 0 0 11.064441 3.8591959 A 5.2916665 5.2916665 0 0 0 10.826729 3.7460245 A 5.2916665 5.2916665 0 0 0 10.349756 3.5253661 A 5.2916665 5.2916665 0 0 0 10.31875 3.5108967 L 10.31875 1.8520833 C 10.31875 1.412347 9.9647361 1.0583333 9.5249998 1.0583333 L 7.4083332 1.0583333 z M 8.4666665 5.8208332 A 2.6458333 2.6458333 0 0 1 11.1125 8.4666665 A 2.6458333 2.6458333 0 0 1 8.4666665 11.1125 A 2.6458333 2.6458333 0 0 1 5.8208332 8.4666665 A 2.6458333 2.6458333 0 0 1 8.4666665 5.8208332 z " />
  </g>
</svg>
