<?xml version="1.0" encoding="UTF-8" standalone="no"?>
<!-- Created with Inkscape (http://www.inkscape.org/) -->

<svg
   width="64"
   height="64"
   viewBox="0 0 16.933333 16.933333"
   version="1.1"
   id="svg1"
   inkscape:version="1.3.2 (091e20e, 2023-11-25, custom)"
   sodipodi:docname="icon_save.svg"
   xmlns:inkscape="http://www.inkscape.org/namespaces/inkscape"
   xmlns:sodipodi="http://sodipodi.sourceforge.net/DTD/sodipodi-0.dtd"
   xmlns="http://www.w3.org/2000/svg"
   xmlns:svg="http://www.w3.org/2000/svg">
  <sodipodi:namedview
     id="namedview1"
     pagecolor="#505050"
     bordercolor="#ffffff"
     borderopacity="1"
     inkscape:showpageshadow="0"
     inkscape:pageopacity="0"
     inkscape:pagecheckerboard="1"
     inkscape:deskcolor="#d1d1d1"
     inkscape:document-units="px"
     inkscape:zoom="5.6568543"
     inkscape:cx="33.14563"
     inkscape:cy="23.776465"
     inkscape:window-width="1600"
     inkscape:window-height="837"
     inkscape:window-x="-8"
     inkscape:window-y="-8"
     inkscape:window-maximized="1"
     inkscape:current-layer="layer1" />
  <defs
     id="defs1" />
  <g
     inkscape:label="Layer 1"
     inkscape:groupmode="layer"
     id="layer1">
    <path
       id="rect8"
       style="fill:#f9f9f9;stroke-width:1.17607"
       d="M 3.4395833 2.1166666 C 2.7066889 2.1166666 2.1166666 2.7066889 2.1166666 3.4395833 L 2.1166666 13.49375 C 2.1166666 14.226644 2.7066889 14.816666 3.4395833 14.816666 L 13.49375 14.816666 C 14.226644 14.816666 14.816666 14.226644 14.816666 13.49375 L 14.816666 3.4395833 C 14.816666 2.7066889 14.226644 2.1166666 13.49375 2.1166666 L 3.4395833 2.1166666 z M 5.8208332 2.6458333 L 11.1125 2.6458333 C 11.405656 2.6458333 11.641666 2.8818424 11.641666 3.1749999 L 11.641666 6.3499999 C 11.641666 6.6431573 11.405656 6.8791665 11.1125 6.8791665 L 5.8208332 6.8791665 C 5.5276758 6.8791665 5.2916666 6.6431573 5.2916666 6.3499999 L 5.2916666 3.1749999 C 5.2916666 2.8818424 5.5276758 2.6458333 5.8208332 2.6458333 z M 6.0854165 3.1749999 C 5.9388379 3.1749999 5.8208332 3.2930045 5.8208332 3.4395833 L 5.8208332 6.0854165 C 5.8208332 6.2319953 5.9388379 6.3499999 6.0854165 6.3499999 L 7.1437499 6.3499999 C 7.2903285 6.3499999 7.4083332 6.2319953 7.4083332 6.0854165 L 7.4083332 3.4395833 C 7.4083332 3.2930045 7.2903285 3.1749999 7.1437499 3.1749999 L 6.0854165 3.1749999 z M 3.7041666 8.2020832 L 13.229166 8.2020832 C 13.668903 8.2020832 14.022916 8.5560961 14.022916 8.9958332 L 14.022916 13.229166 C 14.022916 13.668903 13.668903 14.022916 13.229166 14.022916 L 3.7041666 14.022916 C 3.2644295 14.022916 2.9104166 13.668903 2.9104166 13.229166 L 2.9104166 8.9958332 C 2.9104166 8.5560961 3.2644295 8.2020832 3.7041666 8.2020832 z " />
  </g>
</svg>
