<?xml version="1.0" encoding="UTF-8" standalone="no"?>
<!-- Created with Inkscape (http://www.inkscape.org/) -->

<svg
   width="64"
   height="64"
   viewBox="0 0 16.933333 16.933333"
   version="1.1"
   id="svg1"
   inkscape:version="1.3.2 (091e20e, 2023-11-25, custom)"
   sodipodi:docname="icon_newentry.svg"
   xmlns:inkscape="http://www.inkscape.org/namespaces/inkscape"
   xmlns:sodipodi="http://sodipodi.sourceforge.net/DTD/sodipodi-0.dtd"
   xmlns="http://www.w3.org/2000/svg"
   xmlns:svg="http://www.w3.org/2000/svg">
  <sodipodi:namedview
     id="namedview1"
     pagecolor="#505050"
     bordercolor="#ffffff"
     borderopacity="1"
     inkscape:showpageshadow="0"
     inkscape:pageopacity="0"
     inkscape:pagecheckerboard="1"
     inkscape:deskcolor="#d1d1d1"
     inkscape:document-units="px"
     inkscape:zoom="8"
     inkscape:cx="25.625"
     inkscape:cy="29.9375"
     inkscape:window-width="1600"
     inkscape:window-height="837"
     inkscape:window-x="-8"
     inkscape:window-y="-8"
     inkscape:window-maximized="1"
     inkscape:current-layer="layer1" />
  <defs
     id="defs1" />
  <g
     inkscape:label="Layer 1"
     inkscape:groupmode="layer"
     id="layer1">
    <path
       id="path1"
       style="fill:#f9f9f9;stroke-width:1.17607"
       d="M 8.4666665 1.5875 A 6.8791666 6.8791666 0 0 0 1.5875 8.4666665 A 6.8791666 6.8791666 0 0 0 8.4666665 15.345833 A 6.8791666 6.8791666 0 0 0 15.345833 8.4666665 A 6.8791666 6.8791666 0 0 0 8.4666665 1.5875 z M 8.4666665 3.8364583 C 8.9064032 3.8364583 9.2604165 4.1904717 9.2604165 4.6302082 L 9.2604165 7.8052082 L 12.435416 7.8052082 C 12.875153 7.8052082 13.229166 8.1592215 13.229166 8.5989582 C 13.229166 9.0386947 12.875153 9.3927081 12.435416 9.3927081 L 9.2604165 9.3927081 L 9.2604165 12.567708 C 9.2604165 13.007445 8.9064032 13.361458 8.4666665 13.361458 C 8.0269298 13.361458 7.6729165 13.007445 7.6729165 12.567708 L 7.6729165 9.3927081 L 4.4979166 9.3927081 C 4.0581799 9.3927081 3.7041666 9.0386947 3.7041666 8.5989582 C 3.7041666 8.1592215 4.0581799 7.8052082 4.4979166 7.8052082 L 7.6729165 7.8052082 L 7.6729165 4.6302082 C 7.6729165 4.1904717 8.0269298 3.8364583 8.4666665 3.8364583 z " />
  </g>
</svg>
